<svg id="Layer_1" data-name="Layer 1" xmlns="http://www.w3.org/2000/svg" viewBox="0 0 18 18"><defs><style>.cls-1{fill:#f7931a;}.cls-2{fill:#fff;}</style></defs><circle class="cls-1" cx="9" cy="9" r="9"/><path class="cls-2" d="M12.9685,7.718c.1792-1.19769-.7327-1.84154-1.9796-2.271l.4044-1.62243-.9875-.24612L10.012,5.15807c-.25964-.06469-.5263-.12573-.79126-.1862l.3966-1.59008-.987-.24612L8.22557,4.75753c-.2149-.04895-.42586-.09732-.63063-.14823l.00112-.00507L6.23411,4.26416,5.9714,5.319s.73273.16793.71726.17833a.52551.52551,0,0,1,.46017.57437L6.68809,7.92a.81786.81786,0,0,1,.10268.03291c-.03291-.00816-.06807-.01716-.10436-.02588l-.64582,2.58917a.35949.35949,0,0,1-.45258.23459c.00985.0144-.71782-.1792-.71782-.1792l-.49028,1.1305,1.28517.32041c.23909.05989.47339.12259.704.18169l-.40869,1.641.98645.2461.40476-1.6236c.26946.0732.53105.1407.787.2043l-.40335,1.6159.98756.2461.40871-1.63789c1.684.31869,2.95032.19019,3.48332-1.333A1.73262,1.73262,0,0,0,11.7075,9.168,1.575,1.575,0,0,0,12.9685,7.718Zm-2.2564,3.16415c-.3052,1.2263-2.37008.5634-3.03953.3971l.54231-2.174C8.88433,9.27235,11.0311,9.60314,10.7121,10.88215Zm.3055-3.18187c-.2785,1.11555-1.99713.54877-2.55463.40982l.49168-1.97176C9.51215,6.27729,11.3076,6.53662,11.0176,7.70028Z"/></svg>